<svg width="500.00000000000006" height="500.00000000000006" xmlns="http://www.w3.org/2000/svg">
 <!-- Created with Method Draw - http://github.com/duopixel/Method-Draw/ -->
 <defs>
  <filter height="200%" width="200%" y="-50%" x="-50%" id="svg_4_blur">
   <feGaussianBlur stdDeviation="1.8" in="SourceGraphic"/>
  </filter>
  <filter id="svg_3_blur">
   <feGaussianBlur stdDeviation="1.2" in="SourceGraphic"/>
  </filter>
 </defs>
 <g>
  <title>background</title>
  <g display="none" overflow="visible" y="0" x="0" height="100%" width="100%" id="canvasGrid">
   <rect fill="url(#gridpattern)" stroke-width="0" y="0" x="0" height="100%" width="100%"/>
  </g>
 </g>
 <g>
  <title>Layer 1</title>
  <ellipse ry="240" rx="240" id="svg_1" cy="250" cx="250" stroke-width="18" stroke="#000" fill="#303a47"/>
  <path filter="url(#svg_3_blur)" stroke="#000" id="svg_3" d="m110.430888,162.210917c1.90137,-0.339927 15.711404,13.525745 15.971874,16.319781c0.380274,4.079891 9.12682,4.079891 11.408464,4.079891c2.281766,0 18.633914,8.839854 29.662105,18.359781c11.028312,9.519818 43.352335,0.679964 45.633979,0c2.281766,-0.680073 106.479406,-18.699709 134.620293,-6.119891c13.515282,6.041673 40.155203,-15.3036 43.637571,-59.669126c-1.426058,-29.579454 -31.178443,-30.689563 -37.362867,-21.674618c-4.56341,3.994909 -12.35921,2.804945 -10.457718,-4.504909c1.728984,-4.895018 13.309834,-19.974654 34.700827,-13.344763c18.134446,5.620582 28.623397,19.139236 32.514221,39.01429c2.56688,42.839345 -33.369929,74.458798 -33.369929,74.458798c0,0 2.852116,11.219891 6.845176,18.359781c3.992938,7.139891 5.13376,31.619454 4.563288,34.679345c-0.57035,3.06 17.112818,19.889781 22.81705,20.399672c4.943684,2.04 18.824112,39.779454 19.394462,47.939235c5.133882,2.294945 -0.57035,13.769782 -6.845054,15.299781c-6.274704,1.53 -7.985998,-9.179891 -7.985998,-14.279782c0,-5.099891 -6.274704,-29.069563 -23.957872,-31.619454c-17.683168,-2.55 -33.084571,-11.219891 -33.084571,-11.219891c0,0 -1.140944,5.1 -3.422588,7.14c0,0 5.704232,8.669782 5.704232,21.419563c-0.57035,5.609891 -9.69717,22.949672 -15.971874,24.479672c0,0 -10.267642,14.279782 -14.831052,14.279782c-4.56341,0 -12.549408,5.099891 -25.098695,-1.02c0,0 2.281644,-12.749782 13.69023,-9.179891c0,0 26.809989,-18.359672 13.690108,-26.519563c0,0 -7.985876,-10.199782 -12.549286,-14.279782c-4.56341,-4.079891 -9.12682,-10.709782 -10.267642,-18.359672c0,0 -38.218453,-2.04 -47.915745,-4.08c-9.69717,-2.039891 -27.380339,3.06 -27.380339,6.119891c0,3.06 2.852116,32.129563 7.985876,37.739454c0,0 1.711294,7.139891 0,9.179891c-1.711294,2.039891 6.274704,18.869672 -9.12682,17.339672c-14.545816,2.294945 -21.676106,-7.904836 -4.563288,-11.219782c0.855586,-10.964836 -21.676228,-57.374072 -36.507281,-50.999235c-19.394462,2.55 -12.834522,-12.494727 -31.943749,11.219891c-19.964934,20.909563 -54.190449,35.699345 -55.901621,44.879235c0,0 -10.267642,-2.04 -12.549408,5.099891c0,0 -26.809989,3.06 -25.098695,-1.02c1.711294,-4.079891 3.137352,-12.494727 13.69023,-9.179782c0,0 23.957872,-8.414945 46.774801,-52.019235c0,0 -2.852116,-11.219782 1.140822,-20.399672c3.99306,-9.179782 -2.281644,-46.919235 -30.802927,-44.879235c0,0 -10.647916,3.399927 -17.112696,-12.239782c0,0 -2.66204,-3.06 0,-6.119891c2.661918,-3.06 9.12682,-7.819854 10.267642,-11.219782c1.140822,-3.400036 3.802862,-8.499927 18.253518,-13.259891c6.845176,-6.374836 -0.760426,-19.039636 1.140944,-19.379672z" stroke-width="18" fill="#000000"/>
  <ellipse filter="url(#svg_4_blur)" stroke="#000" ry="7.916665" rx="7.5" id="svg_4" cy="193.333332" cx="100.208333" stroke-opacity="null" stroke-width="6" fill="#eac9a0"/>
 </g>
</svg>
